<svg width="112" height="60" viewBox="0 0 112 60" fill="none" xmlns="http://www.w3.org/2000/svg">
<rect x="100" y="37" width="12" height="12" rx="4" fill="#2305E5"/>
<path d="M0.50877 17.14C1.31877 17.17 2.39877 17.2 3.74877 17.23C5.09877 17.26 6.44877 17.275 7.79877 17.275C9.26877 17.275 10.6788 17.26 12.0288 17.23C13.4088 17.2 14.3838 17.185 14.9538 17.185C17.8938 17.185 20.3088 17.485 22.1988 18.085C24.1188 18.685 25.5588 19.57 26.5188 20.74C27.4788 21.88 27.9588 23.305 27.9588 25.015C27.9588 26.095 27.7338 27.16 27.2838 28.21C26.8638 29.23 26.1288 30.175 25.0788 31.045C24.0588 31.915 22.6338 32.605 20.8038 33.115C19.0038 33.625 16.7238 33.88 13.9638 33.88H9.64377V32.98H13.5138C15.1638 32.98 16.4088 32.65 17.2488 31.99C18.1188 31.3 18.7038 30.4 19.0038 29.29C19.3338 28.15 19.4988 26.89 19.4988 25.51C19.4988 23.14 19.1238 21.31 18.3738 20.02C17.6238 18.7 16.3488 18.04 14.5488 18.04C13.4388 18.04 12.7188 18.295 12.3888 18.805C12.0888 19.315 11.9388 20.35 11.9388 21.91V44.23C11.9388 45.31 12.0138 46.12 12.1638 46.66C12.3438 47.2 12.6588 47.56 13.1088 47.74C13.5888 47.92 14.2938 48.04 15.2238 48.1V49C14.3838 48.94 13.3038 48.91 11.9838 48.91C10.6938 48.88 9.38877 48.865 8.06877 48.865C6.53877 48.865 5.09877 48.88 3.74877 48.91C2.39877 48.91 1.31877 48.94 0.50877 49V48.1C1.43877 48.04 2.12877 47.92 2.57877 47.74C3.05877 47.56 3.37377 47.2 3.52377 46.66C3.70377 46.12 3.79377 45.31 3.79377 44.23V21.91C3.79377 20.8 3.70377 19.99 3.52377 19.48C3.37377 18.94 3.05877 18.58 2.57877 18.4C2.12877 18.19 1.43877 18.07 0.50877 18.04V17.14ZM9.46377 33.115C10.6338 33.145 11.6988 33.205 12.6588 33.295C13.6188 33.385 14.4738 33.475 15.2238 33.565C16.0038 33.625 16.6788 33.67 17.2488 33.7C20.2188 33.88 22.4238 34.45 23.8638 35.41C25.3338 36.34 26.2638 37.735 26.6538 39.595L27.5988 44.275C27.8688 45.415 28.1538 46.225 28.4538 46.705C28.7538 47.155 29.1738 47.365 29.7138 47.335C30.0438 47.335 30.3288 47.275 30.5688 47.155C30.8088 47.005 31.0488 46.795 31.2888 46.525L31.9188 47.11C31.0488 48.04 30.1038 48.685 29.0838 49.045C28.0638 49.435 26.8788 49.63 25.5288 49.63C23.7588 49.63 22.3038 49.285 21.1638 48.595C20.0538 47.905 19.3488 46.63 19.0488 44.77L18.2838 40.27C18.1038 39.04 17.8638 37.945 17.5638 36.985C17.2938 36.025 16.9188 35.275 16.4388 34.735C15.9588 34.165 15.2838 33.88 14.4138 33.88H9.55377L9.46377 33.115Z" fill="#1E1E1E"/>
<path d="M59.01 17.14C58.89 18.55 58.8 19.915 58.74 21.235C58.71 22.555 58.695 23.56 58.695 24.25C58.695 24.85 58.71 25.435 58.74 26.005C58.77 26.575 58.8 27.04 58.83 27.4H57.795C57.465 25.06 56.925 23.215 56.175 21.865C55.455 20.515 54.555 19.57 53.475 19.03C52.425 18.46 51.255 18.175 49.965 18.175H48.75C47.94 18.175 47.31 18.25 46.86 18.4C46.44 18.52 46.155 18.79 46.005 19.21C45.885 19.63 45.825 20.29 45.825 21.19V44.95C45.825 45.82 45.885 46.48 46.005 46.93C46.155 47.35 46.44 47.635 46.86 47.785C47.31 47.905 47.94 47.965 48.75 47.965H50.595C51.765 47.965 52.875 47.665 53.925 47.065C55.005 46.435 55.965 45.385 56.805 43.915C57.645 42.415 58.275 40.39 58.695 37.84H59.73C59.64 38.86 59.595 40.18 59.595 41.8C59.595 42.52 59.61 43.54 59.64 44.86C59.67 46.18 59.76 47.56 59.91 49C58.38 48.94 56.655 48.91 54.735 48.91C52.815 48.88 51.105 48.865 49.605 48.865C48.825 48.865 47.835 48.865 46.635 48.865C45.435 48.865 44.13 48.88 42.72 48.91C41.31 48.91 39.885 48.925 38.445 48.955C37.005 48.955 35.655 48.97 34.395 49V48.1C35.325 48.04 36.015 47.92 36.465 47.74C36.945 47.56 37.26 47.2 37.41 46.66C37.59 46.12 37.68 45.31 37.68 44.23V21.91C37.68 20.8 37.59 19.99 37.41 19.48C37.26 18.94 36.945 18.58 36.465 18.4C36.015 18.19 35.325 18.07 34.395 18.04V17.14C35.685 17.17 37.035 17.2 38.445 17.23C39.885 17.23 41.295 17.245 42.675 17.275C44.085 17.275 45.39 17.275 46.59 17.275C47.82 17.275 48.825 17.275 49.605 17.275C50.985 17.275 52.545 17.275 54.285 17.275C56.055 17.245 57.63 17.2 59.01 17.14ZM52.215 32.53C52.215 32.53 52.215 32.68 52.215 32.98C52.215 33.28 52.215 33.43 52.215 33.43H44.475C44.475 33.43 44.475 33.28 44.475 32.98C44.475 32.68 44.475 32.53 44.475 32.53H52.215ZM53.52 26.59C53.4 28.3 53.34 29.605 53.34 30.505C53.37 31.405 53.385 32.23 53.385 32.98C53.385 33.73 53.4 34.555 53.43 35.455C53.46 36.355 53.535 37.66 53.655 39.37H52.62C52.47 38.29 52.155 37.3 51.675 36.4C51.195 35.5 50.55 34.78 49.74 34.24C48.93 33.7 47.94 33.43 46.77 33.43V32.53C47.64 32.53 48.405 32.35 49.065 31.99C49.725 31.6 50.28 31.105 50.73 30.505C51.21 29.905 51.6 29.26 51.9 28.57C52.2 27.88 52.395 27.22 52.485 26.59H53.52Z" fill="#1E1E1E"/>
<path d="M81.225 16.51C84.525 16.51 87.405 17.155 89.865 18.445C92.325 19.735 94.23 21.595 95.58 24.025C96.96 26.425 97.65 29.35 97.65 32.8C97.65 36.16 96.945 39.1 95.535 41.62C94.155 44.14 92.22 46.105 89.73 47.515C87.24 48.925 84.39 49.63 81.18 49.63C77.91 49.63 75.03 48.985 72.54 47.695C70.08 46.405 68.16 44.545 66.78 42.115C65.43 39.685 64.755 36.76 64.755 33.34C64.755 29.98 65.46 27.04 66.87 24.52C68.31 22 70.26 20.035 72.72 18.625C75.18 17.215 78.015 16.51 81.225 16.51ZM81.045 17.32C79.455 17.32 78.075 17.995 76.905 19.345C75.735 20.695 74.82 22.555 74.16 24.925C73.53 27.295 73.215 30.04 73.215 33.16C73.215 36.34 73.575 39.115 74.295 41.485C75.045 43.825 76.035 45.64 77.265 46.93C78.495 48.19 79.86 48.82 81.36 48.82C82.95 48.82 84.33 48.145 85.5 46.795C86.7 45.445 87.615 43.585 88.245 41.215C88.875 38.815 89.19 36.07 89.19 32.98C89.19 29.77 88.83 26.995 88.11 24.655C87.39 22.315 86.4 20.515 85.14 19.255C83.91 17.965 82.545 17.32 81.045 17.32Z" fill="#1E1E1E"/>
</svg>
